<svg xmlns="http://www.w3.org/2000/svg" viewBox="0 0 17 17" width="17" height="17">
    <title xmlns="http://www.w3.org/2000/svg">git-cat</title>
    <rect x="1" y="0" width="15" height="1" stroke="none" fill="#333333"/>
    <rect x="0" y="1" width="5" height="3" stroke="none" fill="#333333"/>
    <rect x="0" y="4" width="4" height="6" stroke="none" fill="#333333"/>
    <rect x="6" y="1" width="7" height="1" stroke="none" fill="#333333"/>
    <rect x="7" y="2" width="5" height="1" stroke="none" fill="#333333"/>
    <rect x="14" y="1" width="3" height="3" stroke="none" fill="#333333"/>
    <rect x="15" y="4" width="2" height="12" stroke="none" fill="#333333"/>
    <rect x="0" y="4" width="2" height="12" stroke="none" fill="#333333"/>
    <rect x="1" y="16" width="15" height="1" stroke="none" fill="#333333"/>
    <rect x="0" y="14" width="7" height="2" stroke="none" fill="#333333"/>
    <rect x="2" y="12" width="3" height="3" stroke="none" fill="#333333"/>
    <rect x="2" y="11" width="2" height="3" stroke="none" fill="#333333"/>
    <rect x="5" y="13" width="2" height="1" stroke="none" fill="#333333"/>
    <rect x="4" y="8" width="1" height="3" stroke="none" fill="#333333"/>
    <rect x="5" y="9" width="1" height="3" stroke="none" fill="#333333"/>
    <rect x="6" y="10" width="1" height="2" stroke="none" fill="#333333"/>
    <rect x="7" y="10" width="1" height="1" stroke="none" fill="#333333"/>
    <rect x="14" y="8" width="1" height="8" stroke="none" fill="#333333"/>
    <rect x="13" y="9" width="1" height="7" stroke="none" fill="#333333"/>
    <rect x="11" y="10" width="2" height="1" stroke="none" fill="#333333"/>
    <rect x="1" y="13" width="6" height="4" stroke="none" fill="#333333"/>
    <rect x="13" y="9" width="3" height="8" stroke="none" fill="#333333"/>
    <rect x="13" y="9" width="3" height="8" stroke="none" fill="#333333"/>
    <rect x="1" y="0" width="4" height="2" stroke="none" fill="#333333"/>
    <rect x="6" y="0" width="7" height="2" stroke="none" fill="#333333"/>
    <rect x="7" y="0" width="5" height="3" stroke="none" fill="#333333"/>
    <rect x="14" y="0" width="2" height="2" stroke="none" fill="#333333"/>
    <rect x="15" y="1" width="2" height="6" stroke="none" fill="#333333"/>
    <rect x="14" y="8" width="2" height="2" stroke="none" fill="#333333"/>
    <rect x="12" y="10" width="2" height="1" stroke="none" fill="#333333"/>
    <rect x="4" y="10" width="3" height="1" stroke="none" fill="#333333"/>
    <rect x="5" y="11" width="2" height="1" stroke="none" fill="#333333"/>
    <rect x="3" y="9" width="3" height="1" stroke="none" fill="#333333"/>
    <rect x="3" y="8" width="2" height="1" stroke="none" fill="#333333"/>
    <rect x="0" y="3" width="4" height="3" stroke="none" fill="#333333"/>
    <rect x="0" y="11" width="4" height="2" stroke="none" fill="#333333"/>
</svg>